<svg height="496pt" viewBox="0 -32 496 496" width="496pt" xmlns="http://www.w3.org/2000/svg" xmlns:xlink="http://www.w3.org/1999/xlink"><linearGradient id="linear0" gradientUnits="userSpaceOnUse" x1="248" x2="248" y1="432" y2="0"><stop offset="0" stop-color="#9f2fff"/><stop offset="1" stop-color="#0bb1d3"/></linearGradient><path d="m321.726562 392.976562-3.460937-15.625c80.382813-17.800781 129.734375-68.695312 129.734375-97.351562 0-8.726562-2.414062-18.0625-7.175781-27.742188l14.359375-7.066406c5.847656 11.898438 8.816406 23.609375 8.816406 34.808594 0 39.34375-57.167969 94.128906-142.273438 112.976562zm-16.453124 3.144532-2.539063-15.800782c-5.078125.816407-10.261719 1.511719-15.558594 2.0625l1.664063 15.914063c5.59375-.578125 11.070312-1.3125 16.433594-2.175781zm-203.496094-50.074219 10.046875-12.453125c-3.976563-3.210938-7.863281-6.617188-11.535157-10.113281l-11.03125 11.589843c3.988282 3.800782 8.199219 7.496094 12.519532 10.976563zm-47.992188-100.09375-15.464844 4.09375c1.421876 5.386719 3.121094 10.753906 5.03125 15.960937l15.015626-5.511718c-1.742188-4.753906-3.289063-9.640625-4.582032-14.542969zm35.855469 66.527344c-3.410156-3.839844-6.640625-7.839844-9.617187-11.871094l-12.871094 9.496094c3.253906 4.414062 6.792968 8.789062 10.511718 12.992187zm-25.335937-37.960938-14.425782 6.929688c2.417969 5.03125 5.105469 9.992187 7.96875 14.742187l13.695313-8.269531c-2.605469-4.320313-5.046875-8.824219-7.238281-13.402344zm-64.304688-74.519531v-3.3125l15.496094-15.503906 5.617187 4.664062c.285157.242188 26.238281 21.425782 64.335938 32.089844-3.480469-13.195312-5.449219-27.195312-5.449219-41.992188v-6.496093l6.351562-1.335938c1.578126-.328125 39.054688-8.113281 84.894532-8.113281 25.226562 0 47.664062 2.464844 67.371094 7.136719-9.464844-16.703125-14.617188-35.632813-14.617188-55.136719 0-61.761719 50.238281-112 112-112 52.808594 0 97.078125 36.777344 108.839844 86.03125l46.992187-8.230469-11.398437 34.199219 11.511718 34.542969-46.800781-9.359375c-2.710937 11.847656-7.367187 23.023437-13.601562 33.222656 30.378906 21.648438 64.457031 62.402344 64.457031 109.59375 0 71.753906-102.640625 152-240 152-106.304688 0-256-71.976562-256-232zm447.488281-98.183594c.304688 3.359375.511719 6.742188.511719 10.183594 0 3.152344-.160156 6.265625-.414062 9.359375l20.46875 4.097656-4.488282-13.457031 4.601563-13.808594zm-351.335937 80.734375c4.199218 93.90625 97.253906 153.449219 161.777344 153.449219 18.664062 0 62.070312-5.527344 62.070312-56.726562 0-85.351563-80.894531-103.273438-148.753906-103.273438-33.308594 0-62.558594 4.367188-75.09375 6.550781zm-80.128906 20.738281c2.046874 146.6875 141.054687 212.710938 239.976562 212.710938 136.734375 0 224-80.542969 224-136 0-38.574219-28.601562-75.800781-57.753906-96.558594-11.34375 13.695313-25.980469 24.804688-43.167969 31.972656l-6.15625-14.765624c35.886719-14.976563 59.078125-49.769532 59.078125-88.648438 0-52.9375-43.0625-96-96-96s-96 43.0625-96 96c0 23.183594 8.382812 45.457031 23.550781 62.910156 47.191407 18.539063 72.449219 53.976563 72.449219 104.363282 0 44.863281-29.910156 72.726562-78.070312 72.726562-59.523438 0-137.808594-43.007812-166.625-116.183594-35.953126-7.914062-63.191407-25.039062-74.585938-33.214844zm205.609374 110.816407 4.734376-15.28125c-34.871094-10.816407-80.519532-41.632813-94.414063-92.914063l-15.449219 4.179688c15.601563 57.550781 66.375 92 105.128906 104.015625zm34.535157-10.121094c-4.703125-.097656-9.6875-.601563-14.785157-1.496094l-2.765624 15.757813c5.902343 1.035156 11.695312 1.625 17.214843 1.738281zm87.832031-223.984375c0-13.230469 10.769531-24 24-24s24 10.769531 24 24-10.769531 24-24 24-24-10.769531-24-24zm16 0c0 4.40625 3.59375 8 8 8s8-3.59375 8-8-3.59375-8-8-8-8 3.59375-8 8zm-80.566406-24.566406c-24.730469 24.726562-30.578125 62.199218-14.546875 93.253906l14.21875-7.335938c-12.824219-24.839843-8.144531-54.816406 11.636719-74.609374 10.386718-10.382813 23.570312-16.726563 38.144531-18.351563l-1.773438-15.894531c-17.953125 2-34.890625 10.144531-47.679687 22.9375zm0 0" fill="url(#linear0)"/></svg>